<svg xmlns="http://www.w3.org/2000/svg" viewBox="0 0 200 40" fill="none">
  <rect width="36" height="36" rx="8" fill="#5271FF"/>
  <path d="M10 24.5C10 22.5 11.5 20 14 18.5C16.5 17 18 16 18 14C18 12.5 17 11.5 15.5 11.5C14 11.5 13 12.5 13 14" stroke="white" stroke-width="2.5" stroke-linecap="round"/>
  <path d="M18 24.5C18 22.5 19.5 20 22 18.5C24.5 17 26 16 26 14C26 12.5 25 11.5 23.5 11.5C22 11.5 21 12.5 21 14" stroke="white" stroke-width="2.5" stroke-linecap="round"/>
  <path d="M10 28.5H26" stroke="#1ABC9C" stroke-width="2.5" stroke-linecap="round"/>
  <text x="44" y="27" font-family="-apple-system,BlinkMacSystemFont,'Segoe UI',Roboto,sans-serif" font-size="22" font-weight="700" fill="#34495E">Smart<tspan fill="#5271FF">Money</tspan></text>
</svg>
