<?xml version="1.0" encoding="UTF-8"?>
<svg width="298px" height="70px" viewBox="0 0 298 70" version="1.1" xmlns="http://www.w3.org/2000/svg" xmlns:xlink="http://www.w3.org/1999/xlink">
    <title>2FCFD2F2-8648-4E8E-9511-B708449B0A02@1x</title>
    <g id="Details" stroke="none" stroke-width="1" fill="none" fill-rule="evenodd">
        <g id="Utility-|-Western-Union-Logo" transform="translate(-1230.000000, -271.000000)">
            <g id="Primary/YellowWhite" transform="translate(1230.810600, 271.515400)">
                <g id="Group-4" transform="translate(0.000000, 0.000000)" fill="#FFDD00">
                    <path d="M35.203,60.9844 C41.5322,71.9198 51.8872,71.9198 58.216,60.9844 L61.7562,54.8672 L30.073,0 L0,0 L35.203,60.9844" id="Fill-1"></path>
                    <path d="M101.9242,37.5458 C99.612,41.5322 94.168,41.528 91.8612,37.5382 L70.158,0 L40.0938,0 L75.3312,61.0046 C81.66,71.94 91.9922,71.94 98.3214,61.0046 L121.9064,20.1478 L110.3006,0 L80.2502,0 L101.9242,37.5458" id="Fill-3"></path>
                </g>
                <path d="M142.2802,32.2582 L148.446,32.2582 L148.498,32.0654 C152.301,17.954 153.8622,11.9284 154.496,8.195 C155.1128,11.9176 156.5944,18.0302 160.2308,32.063 L160.2816,32.2582 L166.5808,32.2582 L175.35,0 L169.6134,0 L169.5626,0.195 C165.751,14.8404 164.2968,20.7718 163.639,24.5484 C162.8736,20.4878 161.2214,13.789 157.6538,0.1944 L157.603,0 L151.6092,0 L151.559,0.196 C147.8484,14.6978 146.2942,20.9068 145.6302,24.9388 C144.903,21.0098 143.269,14.4964 139.563,0.1952 L139.5122,0 L133.5558,0 L142.2282,32.0656 L142.2802,32.2582" id="Fill-5" fill="#FFFFFF"></path>
                <path d="M184.7408,12.7246 C188.136,12.7246 190.7148,14.8954 190.9776,17.9248 L178.383,17.9248 C178.7684,14.8946 181.3964,12.7246 184.7408,12.7246 Z M185.0928,32.7052 C189.7532,32.7052 194.1636,30.1646 195.9274,26.3814 L191.6726,24.2186 L191.5822,24.2086 L191.502,24.375 C190.9864,25.446 189.0982,27.9374 185.137,27.9374 C181.5394,27.9374 178.8022,25.6484 178.3838,22.3348 L196.704,22.3348 L196.7102,22.0806 C196.8226,17.56 195.5946,13.8508 193.1592,11.3542 C191.048,9.19 188.137,8.0458 184.7408,8.0458 C181.3882,8.0458 178.3336,9.3088 176.1394,11.602 C173.9674,13.872 172.7712,17.0036 172.7712,20.4206 C172.7712,27.6536 177.8382,32.7052 185.0928,32.7052 L185.0928,32.7052 Z" id="Fill-6" fill="#FFFFFF"></path>
                <path d="M208.2934,32.7052 C214.2914,32.7052 218.0174,29.9164 218.0174,25.4268 C218.0174,20.104 213.1774,18.848 209.2894,17.8386 C206.6034,17.1414 204.2834,16.539 204.2834,14.8328 C204.2834,13.4598 205.7334,12.5008 207.8094,12.5008 C210.0774,12.5008 211.6494,13.6988 211.9074,15.6272 L212.0674,16.6034 L212.1754,16.5848 L216.9434,15.7046 C216.9434,11.2324 212.9874,8.0908 207.8534,8.0908 C202.5674,8.0908 198.8754,11.0102 198.8754,15.1904 C198.8754,20.2408 203.5714,21.4978 207.3454,22.508 C210.0754,23.2392 212.4334,23.8704 212.4334,25.6502 C212.4334,27.199 210.9134,28.161 208.4694,28.161 C205.5294,28.161 203.5534,26.7942 203.3134,24.594 L203.2694,24.233 L198.2174,25.1922 C198.2174,30.0878 203.7014,32.7052 208.2934,32.7052" id="Fill-7" fill="#FFFFFF"></path>
                <path d="M222.2854,27.8678 C222.2854,30.5372 223.9754,32.7046 226.7734,32.7046 C230.2454,32.7046 231.2654,32.2582 231.2654,32.2582 L231.2654,27.7608 C231.2654,27.7608 230.2254,27.932 228.9574,27.932 C228.1394,27.932 227.5634,27.4386 227.5634,26.691 L227.5634,13.082 L231.2274,13.082 L231.1774,8.5378 L227.5634,8.5378 L227.5634,1.788 L222.2854,3.1098 L222.2854,8.5378 L219.5314,8.5378 L219.5154,13.082 L222.2854,13.082 L222.2854,27.8678" id="Fill-8" fill="#FFFFFF"></path>
                <path d="M263.6594,11.5386 L263.6594,8.5378 L259.0134,8.5378 L259.0134,32.2582 L264.5974,32.2582 L264.5514,17.7512 C264.6234,16.2922 265.1134,15.1744 266.0074,14.4286 C267.1794,13.4504 269.0074,13.1166 271.4334,13.4374 L271.7254,13.4762 L271.7734,8.5266 L271.5454,8.4952 C268.1994,8.0386 265.1714,9.0614 263.6594,11.5386" id="Fill-9" fill="#FFFFFF"></path>
                <path d="M286.9194,8.0458 C283.5614,8.0458 280.4154,9.3836 278.8574,11.9258 L278.8574,8.5378 L274.0254,8.5378 L274.0254,32.2582 L279.6514,32.2582 L279.6514,19.5262 C279.6514,15.435 281.7934,12.9926 285.3774,12.9926 C287.8294,12.9926 290.7514,14.0642 290.7514,19.1688 L290.7514,32.2582 L296.3794,32.2582 L296.3794,18.4086 C296.3794,10.7682 291.4914,8.0458 286.9194,8.0458" id="Fill-10" fill="#FFFFFF"></path>
                <path d="M156.3494,55.407 C156.3494,60.8886 153.753,63.9074 149.039,63.9074 C144.3534,63.9074 141.7728,60.8886 141.7728,55.407 L141.7728,36.5066 L136.1012,36.5066 L136.1012,55.2726 C136.1012,64.0008 140.9378,69.2116 149.039,69.2116 C157.1402,69.2116 161.9768,64.0008 161.9768,55.2726 L161.9768,36.5066 L156.3494,36.5066 L156.3494,55.407" id="Fill-11" fill="#FFFFFF"></path>
                <path d="M178.2256,44.5524 C174.8684,44.5524 171.7228,45.8902 170.1654,48.432 L170.1654,45.044 L165.3318,45.044 L165.3318,68.7646 L170.9592,68.7646 L170.9592,56.0328 C170.9592,51.9416 173.0996,49.499 176.685,49.499 C179.1362,49.499 182.0586,50.5704 182.0586,55.675 L182.0586,68.7646 L187.686,68.7646 L187.686,54.9152 C187.686,47.2748 182.799,44.5524 178.2256,44.5524" id="Fill-12" fill="#FFFFFF"></path>
                <polygon id="Fill-13" fill="#FFFFFF" points="191.1728 68.7646 196.7562 68.7646 196.7562 45.044 191.1728 45.044"></polygon>
                <path d="M193.9866,36.3018 C192.1622,36.3018 190.7326,37.7078 190.7326,39.5028 C190.7326,41.2436 192.1924,42.66 193.9866,42.66 C195.7566,42.66 197.1964,41.2436 197.1964,39.5028 C197.1964,37.7376 195.7566,36.3018 193.9866,36.3018" id="Fill-14" fill="#FFFFFF"></path>
                <path d="M211.8574,64.0864 C207.8414,64.0864 204.8114,60.9892 204.8114,56.882 C204.8114,52.775 207.8414,49.678 211.8574,49.678 C215.9254,49.678 218.9934,52.775 218.9934,56.882 C218.9934,60.9892 215.9254,64.0864 211.8574,64.0864 Z M211.8574,44.5524 C208.3854,44.5524 205.2094,45.7996 202.9154,48.0638 C200.6234,50.327 199.3614,53.4588 199.3614,56.882 C199.3614,64.0262 204.6174,69.2116 211.8574,69.2116 C219.1254,69.2116 224.3994,64.0262 224.3994,56.882 C224.3994,53.4566 223.1354,50.3248 220.8394,48.0638 C218.5394,45.7994 215.3514,44.5524 211.8574,44.5524 L211.8574,44.5524 Z" id="Fill-15" fill="#FFFFFF"></path>
                <path d="M239.8994,44.5524 C236.5434,44.5524 233.3974,45.8902 231.8394,48.432 L231.8394,45.044 L227.0054,45.044 L227.0054,68.7646 L232.6334,68.7646 L232.6334,56.0328 C232.6334,51.9416 234.7734,49.499 238.3594,49.499 C240.8114,49.499 243.7334,50.5704 243.7334,55.675 L243.7334,68.7646 L249.3594,68.7646 L249.3594,54.9152 C249.3594,47.2748 244.4734,44.5524 239.8994,44.5524" id="Fill-16" fill="#FFFFFF"></path>
                <path d="M238.2774,17.9248 C238.6634,14.8946 241.2914,12.7246 244.6354,12.7246 C248.0294,12.7246 250.6094,14.8954 250.8714,17.9248 L238.2774,17.9248 Z M244.6354,8.0458 C241.2834,8.0458 238.2274,9.3088 236.0334,11.602 C233.8614,13.872 232.6654,17.0036 232.6654,20.4206 C232.6654,27.6536 237.7334,32.7052 244.9874,32.7052 C249.6474,32.7052 254.0574,30.1646 255.8214,26.3814 L251.5674,24.2186 L251.4774,24.2086 L251.3954,24.375 C250.8814,25.446 248.9914,27.9374 245.0314,27.9374 C241.4334,27.9374 238.6974,25.6484 238.2774,22.3348 L256.5974,22.3348 L256.6054,22.0806 C256.7174,17.56 255.4894,13.8508 253.0534,11.3542 C250.9414,9.19 248.0314,8.0458 244.6354,8.0458 L244.6354,8.0458 Z" id="Fill-17" fill="#FFFFFF"></path>
            </g>
        </g>
    </g>
</svg>