<svg xmlns="http://www.w3.org/2000/svg" viewBox="0 0 80 80" fill="none">
  <defs>
    <linearGradient id="card1" x1="10" y1="20" x2="70" y2="60" gradientUnits="userSpaceOnUse">
      <stop offset="0%" stop-color="#6366F1"/>
      <stop offset="100%" stop-color="#4F46E5"/>
    </linearGradient>
    <linearGradient id="card2" x1="15" y1="28" x2="65" y2="65" gradientUnits="userSpaceOnUse">
      <stop offset="0%" stop-color="#818CF8"/>
      <stop offset="100%" stop-color="#6366F1"/>
    </linearGradient>
    <linearGradient id="chip1" x1="0" y1="0" x2="14" y2="10" gradientUnits="userSpaceOnUse">
      <stop offset="0%" stop-color="#FCD34D"/>
      <stop offset="100%" stop-color="#F59E0B"/>
    </linearGradient>
    <linearGradient id="shine1" x1="10" y1="25" x2="50" y2="25" gradientUnits="userSpaceOnUse">
      <stop offset="0%" stop-color="#ffffff" stop-opacity="0.3"/>
      <stop offset="100%" stop-color="#ffffff" stop-opacity="0"/>
    </linearGradient>
  </defs>
  <!-- Shadow card (behind) -->
  <rect x="18" y="30" width="52" height="32" rx="6" fill="url(#card2)" opacity="0.5" transform="rotate(-5, 44, 46)"/>
  <!-- Main card -->
  <rect x="12" y="24" width="52" height="32" rx="6" fill="url(#card1)"/>
  <!-- Shine overlay -->
  <rect x="12" y="24" width="52" height="16" rx="6" fill="url(#shine1)"/>
  <!-- Chip -->
  <rect x="20" y="32" width="14" height="10" rx="2.5" fill="url(#chip1)"/>
  <line x1="20" y1="37" x2="34" y2="37" stroke="#D97706" stroke-width="0.5" opacity="0.5"/>
  <line x1="27" y1="32" x2="27" y2="42" stroke="#D97706" stroke-width="0.5" opacity="0.5"/>
  <!-- Card number dots -->
  <circle cx="22" cy="48" r="1.2" fill="#C7D2FE"/>
  <circle cx="26" cy="48" r="1.2" fill="#C7D2FE"/>
  <circle cx="30" cy="48" r="1.2" fill="#C7D2FE"/>
  <circle cx="34" cy="48" r="1.2" fill="#C7D2FE"/>
  <circle cx="41" cy="48" r="1.2" fill="#C7D2FE"/>
  <circle cx="45" cy="48" r="1.2" fill="#C7D2FE"/>
  <circle cx="49" cy="48" r="1.2" fill="#C7D2FE"/>
  <circle cx="53" cy="48" r="1.2" fill="#C7D2FE"/>
  <!-- Contactless symbol -->
  <path d="M55 30C57 28 59 28 61 30" stroke="#C7D2FE" stroke-width="1" stroke-linecap="round" fill="none"/>
  <path d="M53 32C56 29 60 29 63 32" stroke="#C7D2FE" stroke-width="1" stroke-linecap="round" fill="none"/>
  <!-- Sparkle badge -->
  <circle cx="62" cy="20" r="10" fill="#10B981"/>
  <path d="M58 20L61 17L62 21L66 20L63 23L64 27L61 24L58 27L59 23L56 21Z" fill="#ffffff" opacity="0.9"/>
</svg>
