<svg xmlns="http://www.w3.org/2000/svg" viewBox="0 0 80 80" fill="none">
  <defs>
    <linearGradient id="bldg1" x1="20" y1="15" x2="60" y2="70" gradientUnits="userSpaceOnUse">
      <stop offset="0%" stop-color="#06B6D4"/>
      <stop offset="100%" stop-color="#0891B2"/>
    </linearGradient>
    <linearGradient id="coin2" x1="45" y1="45" x2="70" y2="70" gradientUnits="userSpaceOnUse">
      <stop offset="0%" stop-color="#FCD34D"/>
      <stop offset="100%" stop-color="#F59E0B"/>
    </linearGradient>
    <linearGradient id="doc1" x1="10" y1="30" x2="35" y2="65" gradientUnits="userSpaceOnUse">
      <stop offset="0%" stop-color="#ffffff"/>
      <stop offset="100%" stop-color="#E0F2FE"/>
    </linearGradient>
  </defs>
  <!-- Background glow -->
  <circle cx="40" cy="40" r="36" fill="#06B6D4" opacity="0.08"/>
  <!-- Bank building -->
  <path d="M40 12L60 24H20Z" fill="url(#bldg1)"/>
  <rect x="22" y="24" width="36" height="28" fill="url(#bldg1)" opacity="0.85"/>
  <!-- Columns -->
  <rect x="26" y="28" width="5" height="20" rx="1" fill="#ffffff" opacity="0.4"/>
  <rect x="35" y="28" width="5" height="20" rx="1" fill="#ffffff" opacity="0.4"/>
  <rect x="44" y="28" width="5" height="20" rx="1" fill="#ffffff" opacity="0.4"/>
  <rect x="53" y="28" width="5" height="20" rx="1" fill="#ffffff" opacity="0.3"/>
  <!-- Base -->
  <rect x="18" y="52" width="40" height="4" rx="1" fill="#0891B2"/>
  <!-- Document/contract -->
  <rect x="8" y="38" width="20" height="26" rx="3" fill="url(#doc1)" stroke="#BAE6FD" stroke-width="1"/>
  <line x1="12" y1="44" x2="24" y2="44" stroke="#67E8F9" stroke-width="1.5" stroke-linecap="round"/>
  <line x1="12" y1="48" x2="22" y2="48" stroke="#67E8F9" stroke-width="1.5" stroke-linecap="round"/>
  <line x1="12" y1="52" x2="20" y2="52" stroke="#67E8F9" stroke-width="1.5" stroke-linecap="round"/>
  <circle cx="18" cy="58" r="3" fill="#10B981"/>
  <path d="M16 58L17.5 59.5L20.5 56.5" stroke="#ffffff" stroke-width="1.2" stroke-linecap="round" stroke-linejoin="round"/>
  <!-- Coin stack -->
  <ellipse cx="60" cy="62" rx="12" ry="5" fill="url(#coin2)" opacity="0.7"/>
  <rect x="48" y="56" width="24" height="6" fill="url(#coin2)" opacity="0.6"/>
  <ellipse cx="60" cy="56" rx="12" ry="5" fill="url(#coin2)" opacity="0.8"/>
  <rect x="48" y="50" width="24" height="6" fill="url(#coin2)" opacity="0.7"/>
  <ellipse cx="60" cy="50" rx="12" ry="5" fill="url(#coin2)"/>
  <text x="60" y="53" text-anchor="middle" fill="#92400E" font-size="7" font-weight="bold">AED</text>
</svg>
